<svg version="1.2" baseProfile="tiny-ps" xmlns="http://www.w3.org/2000/svg" viewBox="0 0 1640 440" width="1640" height="440">
	<title>logo-branco</title>
	<style>
		tspan { white-space:pre }
		.shp0 { fill: #ffffff } 
	</style>
	<g id="Layer">
		<path id="Layer" fill-rule="evenodd" class="shp0" d="M1396.63 417.12C1395.84 417.12 1395.06 416.94 1394.32 416.6L1324.77 383.72C1322.88 382.82 1321.68 380.92 1321.68 378.84C1321.68 378.84 1321.77 215.26 1321.77 161.27C1321.77 141.41 1326.6 124.45 1335.74 112.21C1344.47 100.53 1356.43 94.08 1369.41 94.08C1389.08 94.08 1406.92 108.77 1417.45 133.5C1424 129.2 1431.32 126.96 1438.96 126.96C1459.18 126.96 1477.45 142.47 1487.86 168.44C1489.03 171.14 1521.34 245.82 1539.53 287.67C1545.6 280.73 1552.19 268.5 1552.19 248.04L1552.19 28.73C1552.19 26.88 1553.14 25.16 1554.7 24.17C1556.27 23.18 1558.22 23.06 1559.9 23.85L1629.45 56.73C1631.33 57.63 1632.54 59.53 1632.54 61.61L1632.54 280.92C1632.54 299.51 1627.51 315.35 1618 326.74C1609.09 337.41 1596.99 343.29 1583.92 343.29C1563.94 343.29 1546.1 329.75 1536.2 307.06L1535.27 304.91C1528.84 308.52 1521.72 310.4 1514.37 310.41L1514.36 310.41C1494.39 310.41 1476.55 296.87 1466.65 274.19C1454.35 246 1426.11 180.8 1413.63 151.94C1406.16 162.14 1402.11 176.79 1402.11 194.14C1402.11 248.14 1402.02 411.71 1402.02 411.71C1402.01 413.56 1401.07 415.28 1399.51 416.27C1398.64 416.83 1397.64 417.12 1396.63 417.12ZM1544.2 298.37L1546.11 302.75C1554.24 321.37 1568.38 332.49 1583.93 332.49C1602.15 332.49 1621.76 316.35 1621.76 280.91L1621.76 65.03L1563 37.25L1563 248.04C1563 269.39 1556.35 287.07 1544.2 298.37ZM1332.48 375.42L1391.24 403.2C1391.26 368.93 1391.33 240.74 1391.33 194.15C1391.33 171.79 1397.51 153.04 1408.83 140.84L1408.37 139.78C1408.35 139.74 1408.33 139.69 1408.31 139.64C1399.61 117.87 1385.07 104.87 1369.41 104.87C1345.22 104.87 1332.56 133.24 1332.56 161.26C1332.57 210.65 1332.49 351.65 1332.48 375.42ZM1421.81 143.63C1433.19 169.92 1463.65 240.3 1476.56 269.87C1484.69 288.5 1498.82 299.62 1514.37 299.62L1514.38 299.62C1520.21 299.62 1525.86 298.02 1530.93 294.96C1512.79 253.25 1478.28 173.49 1477.92 172.66C1477.9 172.61 1477.88 172.57 1477.86 172.52C1469.16 150.75 1454.61 137.76 1438.96 137.76C1432.88 137.75 1427.01 139.77 1421.81 143.63Z" />
		<path id="Layer" class="shp0" d="M11.31 195.17C12.27 194.37 13.28 193.85 14.35 193.64C15.42 193.41 16.42 193.3 17.38 193.3L34.02 193.3C35.34 193.3 36.48 193.54 37.44 194.02C38.39 194.5 39.2 195.14 39.86 195.95C40.53 196.75 41.06 197.66 41.47 198.69C41.87 199.72 42.25 200.78 42.62 201.88L46.04 215.95C47.14 213.68 48.74 211.1 50.84 208.19C52.94 205.3 55.6 202.59 58.83 200.06C62.06 197.54 65.91 195.42 70.34 193.69C74.79 191.97 79.95 191.12 85.83 191.12C94.2 191.12 101.81 192.73 108.64 195.96C115.48 199.17 121.3 203.57 126.12 209.15C130.93 214.72 134.66 221.22 137.3 228.67C139.95 236.12 141.27 244.08 141.27 252.53L141.27 324.73C141.27 327.53 140.66 329.63 139.45 331.07C138.24 332.51 136.3 333.21 133.66 333.21L108.2 333.21C105.03 333.21 102.87 332.69 101.7 331.62C100.52 330.56 99.93 328.48 99.93 325.39L99.93 253.6C99.93 250.45 99.22 247.46 97.78 244.62C96.35 241.79 94.46 239.29 92.11 237.13C89.76 234.96 87.1 233.25 84.12 232C81.14 230.75 78.1 230.13 75.02 230.13C72.37 230.13 69.68 230.72 66.92 231.89C64.16 233.06 61.62 234.7 59.32 236.79C57 238.88 55.05 241.34 53.47 244.18C51.9 247.01 51 250.08 50.77 253.39L50.77 325.03C50.77 326.29 50.53 327.54 50.06 328.79C49.58 330.03 48.86 330.99 47.91 331.65C46.96 332.24 46.05 332.64 45.21 332.86C44.36 333.08 43.39 333.19 42.29 333.19L17.37 333.19C14.21 333.19 11.93 332.43 10.54 330.89C9.14 329.34 8.44 327.29 8.44 324.71L8.44 201.44C8.44 200.05 8.75 198.77 9.38 197.59C10 196.42 10.87 195.5 11.97 194.84L11.31 195.17Z" />
		<path id="Layer" class="shp0" d="M313.86 171.38C313.86 169.1 314.62 167.39 316.12 166.25C317.62 165.12 319.77 164.03 322.57 163L347.59 154.29C347.95 154.22 348.3 154.18 348.63 154.18L349.57 154.18C352.29 154.18 354.11 154.97 355.03 156.55C355.95 158.13 356.41 160.21 356.41 162.78L356.3 197.5L374.71 197.5C377.06 197.5 378.97 198.2 380.44 199.6C381.9 200.99 382.64 203.09 382.64 205.88L382.64 227.16C382.64 230.24 381.91 232.5 380.44 233.94C378.97 235.37 377.06 236.09 374.71 236.09L356.3 236.09L356.41 324.71C356.41 327.51 355.6 329.61 353.98 331.04C352.36 332.48 350.12 333.19 347.26 333.19L322.35 333.19C316.69 333.19 313.86 330.37 313.86 324.71L313.75 236.09L305.7 236.09C300.04 236.09 297.22 233.12 297.22 227.17L297.22 205.89C297.22 200.31 300.04 197.52 305.7 197.52L313.75 197.52L313.86 171.38Z" />
		<path id="Layer" class="shp0" d="M395.38 201.8C395.38 199.45 396.05 197.43 397.36 195.74C398.68 194.05 400.75 193.2 403.54 193.2L428.79 193.2C429.67 193.2 430.63 193.4 431.65 193.81C432.68 194.21 433.64 194.8 434.52 195.57C435.4 196.34 436.16 197.24 436.79 198.28C437.41 199.31 437.73 200.48 437.73 201.8L437.73 324.7C437.73 327.5 436.96 329.6 435.41 331.03C433.87 332.47 431.66 333.18 428.8 333.18L403.55 333.18C398.11 333.18 395.39 330.36 395.39 324.7L395.39 201.8L395.38 201.8Z" />
		<path id="Layer" class="shp0" d="M457.89 195.17C458.84 194.37 459.85 193.85 460.93 193.64C462 193.41 463 193.3 463.96 193.3L480.6 193.3C481.92 193.3 483.06 193.54 484.01 194.02C484.96 194.5 485.77 195.14 486.44 195.95C487.1 196.75 487.63 197.66 488.03 198.69C488.44 199.72 488.82 200.78 489.18 201.88L492.6 215.95C493.7 213.68 495.04 211.1 496.62 208.19C498.2 205.3 500.29 202.59 502.9 200.06C505.51 197.54 508.78 195.42 512.71 193.69C516.64 191.97 521.54 191.12 527.43 191.12C536.84 191.12 545.06 193.11 552.12 197.1C559.19 201.1 564.98 206.47 569.54 213.21C570.93 210.94 572.85 208.5 575.27 205.89C577.7 203.3 580.6 200.9 583.98 198.7C587.36 196.5 591.24 194.69 595.6 193.26C599.97 191.83 604.81 191.12 610.1 191.12C618.48 191.12 625.96 192.73 632.53 195.96C639.11 199.17 644.69 203.57 649.29 209.15C653.87 214.72 657.37 221.22 659.76 228.67C662.15 236.12 663.34 244.08 663.34 252.53L663.34 324.73C663.34 327.53 662.73 329.63 661.53 331.07C660.31 332.51 658.38 333.21 655.75 333.21L630.3 333.21C627.14 333.21 624.97 332.69 623.8 331.62C622.61 330.56 622.03 328.48 622.03 325.39L622.03 252.5C622.03 249.33 621.52 246.4 620.54 243.69C619.55 240.97 618.18 238.6 616.41 236.58C614.64 234.55 612.5 232.97 609.96 231.83C607.41 230.69 604.61 230.13 601.53 230.13C598.74 230.13 596.08 230.67 593.59 231.78C591.09 232.88 588.88 234.41 586.98 236.35C585.05 238.3 583.54 240.65 582.4 243.41C581.26 246.17 580.69 249.2 580.69 252.51L580.69 324.71C580.69 327.51 580.09 329.61 578.88 331.05C577.67 332.49 575.74 333.19 573.09 333.19L570.78 333.19L569.91 333.19L547.64 333.19C544.47 333.19 542.31 332.67 541.13 331.6C539.95 330.54 539.36 328.46 539.36 325.37L539.36 252.5C539.36 249.33 538.89 246.4 537.98 243.69C537.06 240.97 535.74 238.6 534.02 236.58C532.3 234.55 530.2 232.97 527.73 231.83C525.26 230.69 522.5 230.13 519.41 230.13C516.77 230.13 514.18 230.66 511.65 231.72C509.1 232.79 506.83 234.3 504.82 236.24C502.8 238.19 501.11 240.53 499.75 243.25C498.39 245.96 497.6 248.98 497.38 252.28L497.38 325.02C497.38 326.28 497.14 327.53 496.66 328.78C496.18 330.02 495.46 330.98 494.51 331.64C493.56 332.23 492.66 332.63 491.81 332.85C490.97 333.07 489.99 333.18 488.89 333.18L463.98 333.18C460.82 333.18 458.54 332.42 457.14 330.88C455.75 329.33 455.04 327.28 455.04 324.7L455.04 201.44C455.04 200.05 455.35 198.77 455.98 197.59C456.6 196.42 457.46 195.5 458.57 194.84L457.89 195.17Z" />
		<path id="Layer" fill-rule="evenodd" class="shp0" d="M674.52 263.31C674.52 256.55 675.38 250.04 677.11 243.8C678.83 237.55 681.26 231.77 684.38 226.44C687.5 221.11 691.25 216.26 695.63 211.89C700 207.52 704.87 203.79 710.23 200.7C715.6 197.61 721.38 195.23 727.6 193.54C733.81 191.86 740.29 191 747.05 191C757.04 191 766.42 192.86 775.2 196.57C783.99 200.28 791.63 205.39 798.13 211.89C804.64 218.4 809.77 226.04 813.56 234.82C817.36 243.61 819.25 253.1 819.25 263.32C819.25 270.07 818.38 276.56 816.65 282.77C814.93 288.98 812.51 294.76 809.37 300.13C806.24 305.5 802.5 310.36 798.13 314.73C793.76 319.11 788.89 322.85 783.53 325.97C778.16 329.1 772.41 331.51 766.27 333.19C760.13 334.89 753.73 335.73 747.04 335.73C740.28 335.73 733.79 334.88 727.59 333.19C721.38 331.51 715.59 329.1 710.22 325.97C704.86 322.85 699.99 319.11 695.62 314.73C691.24 310.36 687.5 305.5 684.37 300.13C681.25 294.76 678.82 288.98 677.1 282.77C675.38 276.55 674.52 270.06 674.52 263.31ZM714.76 263.31C714.76 268.16 715.52 272.7 717.03 276.92C718.53 281.15 720.67 284.79 723.42 287.88C726.17 290.98 729.52 293.42 733.45 295.22C737.39 297.02 741.82 297.91 746.74 297.91C751.53 297.91 755.84 297.02 759.7 295.22C763.55 293.42 766.83 290.98 769.5 287.88C772.18 284.8 774.24 281.15 775.68 276.92C777.11 272.7 777.83 268.15 777.83 263.31C777.83 258.61 777.11 254.12 775.68 249.85C774.24 245.59 772.18 241.85 769.5 238.61C766.82 235.38 763.55 232.82 759.7 230.95C755.84 229.08 751.53 228.14 746.74 228.14C741.82 228.14 737.4 229.08 733.45 230.95C729.53 232.83 726.18 235.38 723.42 238.61C720.67 241.85 718.54 245.59 717.03 249.85C715.51 254.12 714.76 258.6 714.76 263.31Z" />
		<path id="Layer" class="shp0" d="M814.97 204.11C813.5 201.1 813.22 198.53 814.14 196.39C815.06 194.26 817.25 193.19 820.71 193.19L848.92 193.19C850.84 193.19 852.5 193.7 853.94 194.73C855.37 195.76 856.38 197.22 856.97 199.14C858.22 203.04 859.6 207.41 861.11 212.27C862.61 217.12 864.2 222.09 865.85 227.2C867.51 232.32 869.14 237.38 870.75 242.41C872.37 247.46 873.86 252.09 875.22 256.31C876.57 260.53 877.79 264.21 878.86 267.32C879.92 270.45 880.71 272.67 881.23 273.99L904.6 199.15C905.55 196.8 906.64 195.22 907.84 194.41C909.05 193.61 910.76 193.2 912.97 193.2L941.96 193.2C944.09 193.2 945.71 193.46 946.81 193.97C947.91 194.49 948.65 195.19 949.01 196.07C949.39 196.96 949.45 197.96 949.24 199.1C949.01 200.25 948.65 201.44 948.14 202.69L895.67 328.46C894.86 329.78 893.9 330.9 892.8 331.82C891.7 332.74 890.04 333.19 887.84 333.19L874.73 333.19C871.79 333.19 869.71 332.77 868.5 331.93C867.28 331.08 866.38 329.93 865.79 328.46L814.97 204.11Z" />
		<path id="Layer" fill-rule="evenodd" class="shp0" d="M290.53 296.77C286.29 304.46 280.88 311.2 274.29 316.94C267.7 322.68 260.11 327 251.54 329.89C242 333.09 232.39 334.38 222.73 333.76C213.06 333.14 203.98 330.82 195.5 326.82C187.02 322.81 179.49 317.26 172.92 310.17C166.35 303.08 161.41 294.62 158.1 284.81C156.04 278.68 154.79 272.48 154.36 266.23C153.92 259.98 154.23 253.88 155.3 247.95C156.37 242.01 158.16 236.27 160.67 230.73C163.19 225.19 166.38 220.1 170.24 215.46C174.11 210.83 178.63 206.72 183.77 203.12C188.92 199.53 194.67 196.66 201.01 194.53C206.79 192.58 212.66 191.46 218.6 191.17C224.55 190.88 230.38 191.32 236.08 192.5C241.79 193.68 247.29 195.56 252.58 198.12C257.86 200.68 262.71 203.8 267.12 207.47C271.53 211.14 275.41 215.34 278.74 220.07C282.08 224.8 284.68 229.96 286.56 235.53C287.78 239.15 288.73 242.13 289.39 244.45C290.06 246.79 290.13 248.8 289.62 250.48C289.09 252.17 287.8 253.66 285.71 254.95C283.62 256.23 280.38 257.61 275.99 259.09L200.77 284.4C202.97 288.62 205.63 291.87 208.76 294.15C211.9 296.44 215.15 297.99 218.54 298.83C221.92 299.68 225.31 299.94 228.7 299.66C232.09 299.37 235.18 298.76 237.97 297.82C240.47 296.97 242.97 295.86 245.43 294.43C247.91 293.03 250.23 291.47 252.4 289.77C254.58 288.07 256.51 286.29 258.17 284.45C259.83 282.61 261.09 280.86 261.92 279.17C262.73 277.89 263.46 276.9 264.11 276.17C264.76 275.45 265.53 274.94 266.43 274.64C267.34 274.33 268.36 274.34 269.51 274.65C270.66 274.96 272.03 275.51 273.61 276.29L288.91 285.1C289.98 285.76 290.74 286.41 291.19 287.07C291.65 287.74 292 288.44 292.26 289.21C292.72 290.61 292.75 291.94 292.32 293.19C291.92 294.46 291.32 295.64 290.53 296.77ZM211 226.65C208.28 227.56 205.83 228.99 203.66 230.92C201.48 232.85 199.58 235.1 197.96 237.67C196.34 240.23 195.03 242.95 194.02 245.85C193.02 248.75 192.36 251.57 192.04 254.31L245.43 236.35C243.05 234.13 240.63 232.16 238.14 230.43C235.66 228.71 233.04 227.34 230.25 226.34C227.47 225.34 224.51 224.82 221.36 224.8C218.21 224.76 214.76 225.38 211 226.65Z" />
		<path id="Layer" class="shp0" d="M1093.73 201.8C1093.73 199.45 1094.39 197.43 1095.72 195.74C1097.04 194.05 1099.1 193.2 1101.89 193.2L1127.13 193.2C1128.01 193.2 1128.96 193.4 1129.99 193.81C1131.02 194.21 1131.97 194.8 1132.86 195.57C1133.75 196.34 1134.49 197.24 1135.12 198.28C1135.74 199.31 1136.05 200.48 1136.05 201.8L1136.05 324.7C1136.05 327.5 1135.28 329.6 1133.75 331.03C1132.2 332.47 1129.99 333.18 1127.13 333.18L1101.89 333.18C1096.45 333.18 1093.73 330.36 1093.73 324.7L1093.73 201.8Z" />
		<path id="Layer" class="shp0" d="M1174.33 289.65C1176.32 291.64 1178.47 293.31 1180.78 294.67C1183.1 296.02 1185.31 297.13 1187.45 297.98C1189.58 298.83 1191.45 299.43 1193.07 299.8C1194.68 300.17 1195.79 300.35 1196.38 300.35C1197.77 300.35 1199.56 300.28 1201.73 300.18C1203.9 300.07 1205.98 299.74 1207.95 299.19C1209.94 298.64 1211.64 297.74 1213.07 296.49C1214.51 295.24 1215.23 293.48 1215.23 291.2C1215.23 289.15 1214.82 287.51 1214.01 286.29C1213.2 285.09 1212.02 284.06 1210.49 283.22C1208.94 282.37 1207.05 281.62 1204.8 280.96C1202.56 280.3 1200.04 279.53 1197.25 278.65C1188.44 276.29 1181.17 273.47 1175.43 270.16C1169.7 266.85 1165.16 263.16 1161.82 259.08C1158.47 255 1156.14 250.61 1154.82 245.9C1153.5 241.2 1152.84 236.24 1152.84 231.03C1152.84 224.92 1154.05 219.37 1156.48 214.38C1158.9 209.39 1162.36 205.1 1166.83 201.53C1171.32 197.97 1176.69 195.21 1182.93 193.27C1189.17 191.32 1196.12 190.34 1203.76 190.34C1208.39 190.34 1212.72 190.73 1216.76 191.5C1220.8 192.27 1224.66 193.48 1228.34 195.14C1232.02 196.79 1235.6 198.93 1239.08 201.53C1242.58 204.14 1246.04 207.25 1249.5 210.85C1250.75 212.32 1251.39 213.7 1251.43 214.99C1251.46 216.27 1250.64 217.65 1248.94 219.12C1246.08 221.47 1243.34 223.78 1240.74 226.06C1238.12 228.35 1235.42 230.88 1232.64 233.66C1231.75 234.4 1230.87 234.86 1229.99 235.04C1229.12 235.23 1228.27 235.2 1227.46 234.98C1226.65 234.76 1225.88 234.4 1225.14 233.88C1224.41 233.37 1223.74 232.74 1223.16 232.01C1220.59 229.15 1217.65 227.21 1214.34 226.23C1211.03 225.23 1207.94 224.74 1205.08 224.74C1201.48 224.74 1198.62 225.37 1196.48 226.61C1194.35 227.87 1193.36 229.78 1193.5 232.34C1193.65 234.25 1194.36 235.75 1195.66 236.81C1196.95 237.87 1198.52 238.74 1200.39 239.4C1202.27 240.05 1204.25 240.59 1206.35 240.99C1208.44 241.39 1210.37 241.86 1212.13 242.37C1218.75 244.5 1224.81 246.81 1230.32 249.31C1235.84 251.81 1240.61 254.87 1244.65 258.51C1248.68 262.15 1251.82 266.5 1254.07 271.57C1256.31 276.64 1257.43 282.82 1257.43 290.09C1257.43 297.36 1255.98 303.86 1253.08 309.6C1250.18 315.33 1246.18 320.14 1241.11 324.04C1236.04 327.94 1230.04 330.91 1223.09 332.98C1216.15 335.03 1208.67 336.06 1200.66 336.06C1196.1 336.06 1191.47 335.65 1186.77 334.85C1182.08 334.04 1177.52 332.74 1173.11 330.94C1168.7 329.13 1164.51 326.81 1160.54 323.99C1156.57 321.17 1153.05 317.72 1149.96 313.68C1149.15 312.64 1148.55 311.56 1148.14 310.43C1147.73 309.29 1147.55 308.16 1147.59 307.06C1147.63 305.96 1147.85 304.96 1148.26 304.04C1148.66 303.12 1149.3 302.33 1150.19 301.66L1164.4 287.44C1166.17 285.97 1167.73 285.45 1169.09 285.9C1170.45 286.34 1172.2 287.59 1174.33 289.65Z" />
		<path id="Layer" class="shp0" d="M438.79 161.5C438.79 173.78 428.83 183.75 416.54 183.75C404.25 183.75 394.29 173.78 394.29 161.5C394.29 149.22 404.25 139.25 416.54 139.25C428.83 139.25 438.79 149.21 438.79 161.5Z" />
		<path id="Layer" class="shp0" d="M1136.42 161.5C1136.42 173.78 1126.46 183.75 1114.17 183.75C1101.89 183.75 1091.92 173.78 1091.92 161.5C1091.92 149.22 1101.89 139.25 1114.17 139.25C1126.46 139.25 1136.42 149.21 1136.42 161.5Z" />
		<path id="Layer" fill-rule="evenodd" class="shp0" d="M1077.84 296.77C1073.6 304.46 1068.19 311.2 1061.6 316.94C1055 322.68 1047.43 327 1038.85 329.89C1029.31 333.09 1019.7 334.38 1010.03 333.76C1000.36 333.14 991.29 330.82 982.81 326.82C974.33 322.81 966.8 317.26 960.23 310.17C953.66 303.08 948.72 294.62 945.41 284.81C943.35 278.68 942.1 272.48 941.66 266.23C941.23 259.98 941.54 253.88 942.6 247.95C943.67 242.01 945.46 236.27 947.98 230.73C950.5 225.19 953.69 220.1 957.55 215.46C961.42 210.83 965.93 206.72 971.08 203.12C976.22 199.53 981.98 196.66 988.31 194.53C994.09 192.58 999.96 191.46 1005.9 191.17C1011.84 190.88 1017.68 191.32 1023.38 192.5C1029.09 193.68 1034.58 195.56 1039.87 198.12C1045.15 200.68 1049.99 203.8 1054.41 207.47C1058.83 211.14 1062.69 215.34 1066.03 220.07C1069.37 224.8 1071.98 229.96 1073.85 235.53C1075.07 239.15 1076.01 242.13 1076.68 244.45C1077.36 246.79 1077.43 248.8 1076.91 250.48C1076.39 252.17 1075.09 253.66 1073 254.95C1070.9 256.23 1067.67 257.61 1063.29 259.09L988.06 284.4C990.26 288.62 992.92 291.87 996.06 294.15C999.19 296.44 1002.45 297.99 1005.83 298.83C1009.21 299.68 1012.6 299.94 1016 299.66C1019.39 299.37 1022.47 298.76 1025.26 297.82C1027.76 296.97 1030.26 295.86 1032.73 294.43C1035.2 293.03 1037.52 291.47 1039.7 289.77C1041.88 288.07 1043.8 286.29 1045.47 284.45C1047.13 282.61 1048.39 280.86 1049.22 279.17C1050.02 277.89 1050.76 276.9 1051.41 276.17C1052.05 275.45 1052.83 274.94 1053.74 274.64C1054.65 274.33 1055.67 274.34 1056.82 274.65C1057.97 274.96 1059.34 275.51 1060.93 276.29L1076.22 285.1C1077.3 285.76 1078.05 286.41 1078.51 287.07C1078.97 287.74 1079.32 288.44 1079.58 289.21C1080.05 290.61 1080.07 291.94 1079.64 293.19C1079.23 294.46 1078.62 295.64 1077.84 296.77ZM998.29 226.65C995.58 227.56 993.13 228.99 990.95 230.92C988.78 232.85 986.88 235.1 985.26 237.67C983.64 240.23 982.32 242.95 981.33 245.85C980.33 248.75 979.67 251.57 979.35 254.31L1032.73 236.35C1030.35 234.13 1027.93 232.16 1025.44 230.43C1022.97 228.71 1020.34 227.34 1017.55 226.34C1014.77 225.34 1011.81 224.82 1008.66 224.8C1005.51 224.76 1002.06 225.38 998.29 226.65Z" />
		<path id="Layer" class="shp0" d="M739.57 149.74C739.95 147.99 740.73 146.73 741.92 146.01C743.11 145.28 744.36 144.92 745.67 144.92L775.33 144.92C776.48 144.92 777.34 145.14 777.92 145.61C778.5 146.06 778.88 146.64 779.07 147.33C779.26 148.03 779.28 148.81 779.13 149.69C778.98 150.57 778.71 151.43 778.33 152.27L767.07 176.98C766.15 178.68 765.25 179.9 764.36 180.66C763.47 181.43 762.31 181.82 760.86 181.82L735.68 181.82C734.53 181.82 733.74 181.51 733.33 180.89C732.91 180.28 732.69 179.55 732.69 178.71C732.69 177.87 732.81 176.95 733.04 175.95C733.26 174.96 733.46 174.11 733.61 173.42L739.57 149.74Z" />
	</g>
</svg>